<?xml version="1.0" encoding="UTF-8"?>
<svg id="Layer_7" data-name="Layer 7" xmlns="http://www.w3.org/2000/svg" viewBox="0 0 1032 300">
  <defs>
    <style>
      .cls-1 {
        letter-spacing: 0em;
      }

      .cls-2 {
        fill: none;
      }

      .cls-2, .cls-3 {
        font-family: IBMPlexSans-SemiBold, 'IBM Plex Sans';
        font-size: 120px;
        font-variation-settings: 'wght' 600, 'wdth' 100;
        font-weight: 600;
      }

      .cls-4, .cls-3 {
        fill: #fff;
      }

      .cls-4, .cls-5 {
        stroke-width: 0px;
      }

      .cls-6 {
        letter-spacing: 0em;
      }

      .cls-5 {
        fill: #1d1d1b;
      }
    </style>
  </defs>
  <rect id="bg" class="cls-5" x="0" y="0" width="1032" height="300" rx="50" ry="50"/>
  <g>
    <text class="cls-3" transform="translate(335.94 186.24)"><tspan x="0" y="0">immig</tspan><tspan class="cls-6" x="344.51" y="0">r</tspan><tspan class="cls-1" x="391.19" y="0">ant</tspan></text>
    <text class="cls-2" transform="translate(335.94 186.24)"><tspan x="0" y="0">immig</tspan><tspan class="cls-6" x="344.51" y="0">r</tspan><tspan class="cls-1" x="391.19" y="0">ant</tspan></text>
    <text class="cls-2" transform="translate(335.94 186.24)"><tspan x="0" y="0">immig</tspan><tspan class="cls-6" x="344.51" y="0">r</tspan><tspan class="cls-1" x="391.19" y="0">ant</tspan></text>
  </g>
  <path id="logo" class="cls-4" d="m265.6,175.87c-7.73-34.39-25.29-65.05-49.6-88.88-2.9-2.85-5.91-5.59-9-8.24-2.92-2.5-5.92-4.91-9-7.22-.31-.23-.63-.46-.94-.7-5.46-4.05-11.15-7.81-17.06-11.23-5.91,3.42-11.6,7.18-17.06,11.23-.31.23-.63.46-.94.7-3.08,2.31-6.08,4.72-9,7.22-3.09,2.65-6.1,5.39-9,8.24-24.31,23.83-41.87,54.49-49.6,88.88-2.87,12.76-4.41,26.03-4.4,39.65,0,0,0,0,0,0,5.88,3.4,11.99,6.46,18.27,9.19,11.35,4.94,23.31,8.76,35.73,11.29,2.97.6,5.98,1.11,9,1.57,2.98.45,5.98.84,9,1.14,5.92.59,11.92.89,18,.89s12.08-.3,18-.89c3.02-.3,6.02-.7,9-1.14,3.02-.45,6.03-.96,9-1.57,12.43-2.52,24.38-6.35,35.73-11.29,6.28-2.73,12.38-5.79,18.27-9.19,0,0,0,0,0,0,0-13.63-1.53-26.89-4.4-39.65Zm-154.64,8.67c4.66-24.07,14.65-46.24,28.7-65.23,1.38-1.87,4.34-.91,4.34,1.42v75.67c0,1.6-1.53,2.74-3.07,2.31-10.07-2.83-19.69-6.74-28.74-11.58-.93-.5-1.43-1.55-1.23-2.58Zm105.04,11.86v-75.67c0-2.32,2.96-3.28,4.34-1.42,14.04,18.99,24.04,41.16,28.7,65.23.2,1.03-.3,2.09-1.23,2.58-9.05,4.84-18.67,8.74-28.74,11.58-1.54.43-3.07-.71-3.07-2.31Z"/>
</svg>